<svg xmlns="http://www.w3.org/2000/svg" width="27" height="17" viewBox="0 0 27 17" fill="none">
  <path d="M23.7884 1.65425C23.782 1.20429 23.4154 0.842868 22.9654 0.842868H17.9287C17.4742 0.842868 17.1057 1.21136 17.1057 1.66593V1.87512C17.1057 2.32968 17.4742 2.69818 17.9287 2.69818H22.9684C23.4275 2.69818 23.7979 2.32253 23.7914 1.86344L23.7884 1.65425ZM22.369 13.6063C21.8629 13.9417 21.2652 14.1118 20.6584 14.0932C20.2567 14.1351 19.8507 14.0936 19.4658 13.9713C19.0809 13.849 18.7254 13.6486 18.4215 13.3826C18.0347 12.9441 17.7756 12.4139 17.6642 11.8493C17.5791 11.4175 17.9522 11.0668 18.3922 11.0668H25.5498C25.9817 11.0668 26.3445 10.7325 26.3363 10.3007C26.3243 9.67253 26.2428 9.04685 26.0927 8.43515C25.8886 7.61674 25.5314 6.84436 25.0401 6.15878C24.5455 5.49377 23.9067 4.94944 23.1716 4.56664C22.3538 4.1634 21.4517 3.96044 20.54 3.97452C19.6825 3.96824 18.8324 4.13378 18.0399 4.46138C17.3142 4.76729 16.6567 5.21459 16.1056 5.7772C15.5562 6.35105 15.1306 7.03185 14.8556 7.77724C14.5605 8.58194 14.4134 9.43339 14.4214 10.2905C14.4079 11.1597 14.5505 12.0243 14.8425 12.8432C15.0905 13.5847 15.4841 14.2691 16.0004 14.8564C16.5345 15.4329 17.1909 15.8825 17.9215 16.1722C18.7361 16.4826 19.6025 16.6344 20.4742 16.6196C21.6971 16.6577 22.9045 16.3375 23.9479 15.6985C24.7089 15.1577 25.316 14.4371 25.7197 13.608C25.9563 13.122 25.5628 12.6063 25.0222 12.6063H23.7543C23.4116 12.6063 23.1172 12.8297 22.9123 13.1043C22.7644 13.3023 22.5807 13.4729 22.369 13.6063ZM17.8231 8.18515C17.8425 8.18515 17.8596 8.17254 17.8656 8.15413C17.9689 7.83799 18.1353 7.54596 18.3547 7.29576C18.5814 7.03741 18.8596 6.82939 19.1715 6.68511C19.5846 6.49917 20.0345 6.4092 20.4873 6.42195C20.8145 6.39401 21.1438 6.43716 21.4527 6.54845C21.7615 6.65974 22.0427 6.83654 22.2768 7.0667C22.5241 7.36931 22.7223 7.70649 22.8662 8.06587C23.0515 8.52866 22.6621 8.97464 22.1636 8.97464H18.12C17.8641 8.97464 17.6604 8.75551 17.7112 8.50465C17.7308 8.40801 17.754 8.31209 17.7808 8.21709C17.7861 8.19814 17.8034 8.18515 17.8231 8.18515V8.18515ZM10.8935 7.55355C10.8945 7.55355 10.8955 7.55335 10.8964 7.55297C11.5655 7.27404 12.1469 6.81965 12.5792 6.23773C12.9769 5.6193 13.1745 4.8934 13.1451 4.15874C13.1708 3.48877 13.0402 2.82201 12.7635 2.21132C12.531 1.68225 12.1578 1.22712 11.6845 0.8955C11.1827 0.55072 10.6129 0.317412 10.0134 0.211274C9.30393 0.062472 8.5803 -0.0081264 7.85545 0.000742592H0.823057C0.368495 0.000742592 0 0.369238 0 0.8238V15.7307C0 16.1853 0.368495 16.5538 0.823057 16.5538H8.02651C8.75901 16.5543 9.48859 16.4614 10.1976 16.2774C10.8697 16.1036 11.5064 15.8142 12.0792 15.4222C12.6342 15.0376 13.086 14.5224 13.3951 13.9221C13.7371 13.2508 13.9045 12.5041 13.8819 11.751C13.9068 10.8178 13.6451 9.89929 13.1319 9.11938C12.5924 8.35259 11.798 7.80346 10.8916 7.56914C10.8828 7.56687 10.8844 7.55355 10.8935 7.55355V7.55355ZM3.64482 3.65281C3.64482 3.19825 4.01332 2.82976 4.46788 2.82976H7.0528C7.36589 2.82937 7.67844 2.85578 7.98703 2.90871C8.27118 2.95082 8.54407 3.04923 8.78968 3.19819C9.02699 3.33242 9.21927 3.53386 9.34233 3.77715C9.49473 4.06889 9.56735 4.39571 9.55286 4.72454C9.57738 5.00775 9.53407 5.29273 9.42652 5.55588C9.31898 5.81902 9.15029 6.05276 8.93442 6.23773C8.46352 6.56147 7.90003 6.72312 7.32912 6.69827H4.46788C4.01332 6.69827 3.64482 6.32978 3.64482 5.87521V3.65281ZM10.0134 12.6195C9.87821 12.8876 9.67378 13.1148 9.42128 13.2774C9.15851 13.4408 8.86899 13.5566 8.56599 13.6195C8.22922 13.6949 7.88472 13.7302 7.53965 13.7248H4.41525C3.96069 13.7248 3.59219 13.3563 3.59219 12.9017V10.0082C3.59219 9.55367 3.96069 9.18517 4.41525 9.18517H7.53965C8.21706 9.15551 8.88602 9.34466 9.44759 9.72466C9.7013 9.95234 9.89783 10.2366 10.0213 10.5543C10.1349 10.8468 10.1837 11.1602 10.1646 11.4728C10.1613 11.5267 10.1613 11.5806 10.1647 11.6345C10.1859 11.9695 10.1344 12.3056 10.0134 12.6195Z" fill="#727272"/>
</svg>